<svg width="18" height="18" viewBox="0 0 18 18" fill="none" xmlns="http://www.w3.org/2000/svg">
<path d="M17.7321 3.70293C17.1059 3.98043 16.4331 4.16793 15.7259 4.25268C16.4556 3.81602 17.0016 3.12878 17.2619 2.31918C16.5763 2.72642 15.8259 3.01308 15.0434 3.16668C14.5172 2.60483 13.8202 2.23242 13.0606 2.10729C12.3011 1.98215 11.5215 2.11127 10.8428 2.47462C10.1642 2.83797 9.62447 3.4152 9.3075 4.11671C8.99054 4.81821 8.91404 5.60474 9.08989 6.35418C7.70065 6.28443 6.34161 5.92334 5.10096 5.29436C3.8603 4.66538 2.76577 3.78255 1.88839 2.70318C1.58839 3.22068 1.41589 3.82068 1.41589 4.45968C1.41555 5.03493 1.55721 5.60136 1.8283 6.10873C2.09938 6.6161 2.49151 7.04871 2.96989 7.36818C2.41509 7.35053 1.87254 7.20062 1.38739 6.93093V6.97593C1.38733 7.78274 1.66641 8.56471 2.17727 9.18918C2.68814 9.81364 3.39932 10.2421 4.19014 10.4019C3.67547 10.5412 3.13589 10.5617 2.61214 10.4619C2.83526 11.1561 3.26988 11.7632 3.85516 12.1981C4.44044 12.633 5.14707 12.8741 5.87614 12.8874C4.63851 13.859 3.11005 14.386 1.53664 14.3837C1.25792 14.3838 0.979444 14.3675 0.702637 14.3349C2.29974 15.3618 4.15889 15.9068 6.05764 15.9047C12.4851 15.9047 15.9989 10.5812 15.9989 5.96418C15.9989 5.81418 15.9951 5.66268 15.9884 5.51268C16.6719 5.01841 17.2618 4.40635 17.7306 3.70518L17.7321 3.70293V3.70293Z" fill="#F2F2F2"/>
</svg>
